<?xml version="1.0" encoding="UTF-8" standalone="no"?>
<svg
   xmlns:dc="http://purl.org/dc/elements/1.1/"
   xmlns:cc="http://creativecommons.org/ns#"
   xmlns:rdf="http://www.w3.org/1999/02/22-rdf-syntax-ns#"
   xmlns:svg="http://www.w3.org/2000/svg"
   xmlns="http://www.w3.org/2000/svg"
   viewBox="0 0 646.96399 594.07202"
   height="594.07202"
   width="646.96399"
   xml:space="preserve"
   id="svg2"
   version="1.1"><metadata
     id="metadata8"><rdf:RDF><cc:Work
         rdf:about=""><dc:format>image/svg+xml</dc:format><dc:type
           rdf:resource="http://purl.org/dc/dcmitype/StillImage" /></cc:Work></rdf:RDF></metadata><defs
     id="defs6"><clipPath
       id="clipPath18"
       clipPathUnits="userSpaceOnUse"><path
         id="path16"
         d="M 0,445.554 H 485.223 V 0 H 0 Z" /></clipPath><clipPath
       id="clipPath30"
       clipPathUnits="userSpaceOnUse"><path
         id="path28"
         d="M 0,445.554 H 485.223 V 0 H 0 Z" /></clipPath><clipPath
       id="clipPath122"
       clipPathUnits="userSpaceOnUse"><path
         id="path120"
         d="m 287.7,311.304 v -0.109 c 0.065,0.08 0.099,0.125 0.099,0.125 v 0 c -0.032,-0.006 -0.066,-0.01 -0.099,-0.016" /></clipPath><linearGradient
       id="linearGradient136"
       spreadMethod="pad"
       gradientTransform="matrix(-69.788795,53.917084,53.917084,69.788795,272.05435,323.38358)"
       gradientUnits="userSpaceOnUse"
       y2="0"
       x2="1"
       y1="0"
       x1="0"><stop
         id="stop128"
         offset="0"
         style="stop-opacity:1;stop-color:#ffbeb6" /><stop
         id="stop130"
         offset="0.0326"
         style="stop-opacity:1;stop-color:#febdb5" /><stop
         id="stop132"
         offset="0.6116"
         style="stop-opacity:1;stop-color:#f5a8a3" /><stop
         id="stop134"
         offset="1"
         style="stop-opacity:1;stop-color:#f2a19c" /></linearGradient><clipPath
       id="clipPath146"
       clipPathUnits="userSpaceOnUse"><path
         id="path144"
         d="M 0,445.554 H 485.223 V 0 H 0 Z" /></clipPath></defs><g
     transform="matrix(1.3333333,0,0,-1.3333333,0,594.072)"
     id="g10"><g
       id="g12"><g
         clip-path="url(#clipPath18)"
         id="g14"><g
           transform="translate(485.2234,209.62)"
           id="g20"><path
             id="path22"
             style="fill:#6eeafd;fill-opacity:1;fill-rule:nonzero;stroke:none"
             d="m 0,0 c 0,-115.77 -93.851,-209.62 -209.62,-209.62 -115.77,0 -209.62,93.85 -209.62,209.62 0,115.77 93.85,209.62 209.62,209.62 C -93.851,209.62 0,115.77 0,0" /></g></g></g><g
       id="g24"><g
         clip-path="url(#clipPath30)"
         id="g26"><g
           transform="translate(384.5525,138.6791)"
           id="g32"><path
             id="path34"
             style="fill:#2880c2;fill-opacity:1;fill-rule:nonzero;stroke:none"
             d="m 0,0 c 2.138,-27.463 8.619,-73.949 10.025,-101.649 11.994,8.283 23.086,17.776 33.09,28.316 l 1.422,8.889 C 34.812,-40.942 25.099,-16.217 21.466,-2.294 15.012,-2.255 7.892,-1.545 0,0" /></g><g
           transform="translate(462.6902,261.6937)"
           id="g36"><path
             id="path38"
             style="fill:#2d91dc;fill-opacity:1;fill-rule:nonzero;stroke:none"
             d="M 0,0 C 0.04,-0.521 0.075,-1.046 0.111,-1.57 0.307,-0.554 0.504,0.489 0.705,1.562 0.478,1.044 0.244,0.524 0,0" /></g><g
           transform="translate(406.0183,136.3851)"
           id="g40"><path
             id="path42"
             style="fill:#2d91dc;fill-opacity:1;fill-rule:nonzero;stroke:none"
             d="m 0,0 c 3.633,-13.923 13.346,-38.648 23.071,-62.15 0.704,-1.7 1.408,-3.392 2.109,-5.075 12.518,13.86 23.207,29.402 31.696,46.244 -2.874,9.204 -4.987,13.805 -4.987,13.805 C 49.331,-0.172 45.12,5.674 42.716,14.583 33.128,6.106 19.71,-0.118 0,0" /></g><g
           transform="translate(355.4021,233.5995)"
           id="g44"><path
             id="path46"
             style="fill:#163a64;fill-opacity:1;fill-rule:nonzero;stroke:none"
             d="m 0,0 c 3.949,2.816 9.422,6.792 15.069,11.128 4.952,3.804 8.345,7.159 10.642,10.827 l 0.188,39.847 C 23.84,44.066 17.836,36.884 10.434,31.785 0.229,24.782 -6.436,20.732 -6.436,20.732 l 3.373,-10.96 c 0.022,0.014 0.042,0.025 0.062,0.038 z" /></g><g
           transform="translate(380.2468,312.847)"
           id="g48"><path
             id="path50"
             style="fill:#163a64;fill-opacity:1;fill-rule:nonzero;stroke:none"
             d="m 0,0 c -0.008,0.007 -0.016,0.014 -0.023,0.021 0.492,-2.507 0.884,-5.059 1.125,-7.568 l 0.014,3.085 C 0.753,-2.952 0.379,-1.46 0,0" /></g><g
           transform="translate(355.4021,233.5995)"
           id="g52"><path
             id="path54"
             style="fill:#dbb8a4;fill-opacity:1;fill-rule:nonzero;stroke:none"
             d="M 0,0 -3.001,9.81 C -3.021,9.797 -3.041,9.786 -3.063,9.772 -5.598,8.218 -7.833,6.926 -9.846,5.871 -7.546,3.23 -5.38,0.478 -3.356,-2.375 -2.436,-1.729 -1.301,-0.927 0,0" /></g><g
           transform="translate(361.949,194.8842)"
           id="g56"><path
             id="path58"
             style="fill:#eeeeee;fill-opacity:1;fill-rule:nonzero;stroke:none"
             d="m 0,0 c -9.085,-2.132 -16.771,-3.696 -19.679,-4.428 -7.73,-1.943 -15.014,-12.683 -26.762,-19.223 -11.749,-6.54 -25.239,8.507 -25.433,10.366 -0.194,1.857 15.081,3.444 16.233,4.264 1.153,0.82 -8.532,-0.084 -13.728,-0.833 -2.694,-0.387 -4.178,0.225 -4.88,1.208 v -20.418 h -75.177 c 1.905,-7.807 3.011,-15.051 2.677,-21.3 -0.66,-12.453 -4.418,-36.545 -8.574,-60.396 12.295,-8.521 26.611,-14.544 42.343,-17.192 57.096,-9.612 111.247,28.932 120.974,86.111 1.22,7.247 1.663,14.445 1.397,21.509 -1.146,-0.375 -1.823,-0.547 -1.823,-0.547 z" /></g><g
           transform="translate(287.7,189.807)"
           id="g60"><path
             id="path62"
             style="fill:#eeeeee;fill-opacity:1;fill-rule:nonzero;stroke:none"
             d="m 0,0 c 2.021,1.883 14.119,2.29 21.729,4.354 8.076,2.189 7.654,5.708 -0.724,9.552 -8.378,3.844 -3.307,8.669 -3.307,8.669 0,0 3.138,-1.238 13.831,-6.993 10.694,-5.755 14.753,-6.337 31.62,3.499 1.611,0.94 3.247,1.997 4.887,3.138 l -6.301,17.382 c 0,0 0.965,0.662 2.611,1.816 -2.024,2.854 -4.19,5.606 -6.49,8.247 C 43.261,66.428 23.279,78.67 0,83.478 Z" /></g><g
           transform="translate(319.2292,205.389)"
           id="g64"><path
             id="path66"
             style="fill:#dbb8a4;fill-opacity:1;fill-rule:nonzero;stroke:none"
             d="m 0,0 c -10.693,5.755 -13.831,6.993 -13.831,6.993 0,0 -5.071,-4.825 3.307,-8.669 8.378,-3.845 8.799,-7.363 0.724,-9.553 -7.61,-2.063 -19.709,-2.47 -21.729,-4.353 v -3.568 c 0.702,-0.984 2.185,-1.596 4.88,-1.208 5.196,0.748 14.88,1.652 13.728,0.832 -1.152,-0.82 -16.428,-2.407 -16.233,-4.264 0.194,-1.858 13.683,-16.906 25.432,-10.366 11.748,6.54 19.033,17.28 26.763,19.223 2.908,0.732 10.594,2.296 19.679,4.428 L 36.507,6.637 C 34.866,5.496 33.23,4.439 31.62,3.499 14.753,-6.337 10.693,-5.755 0,0" /></g><g
           transform="translate(455.4216,248.7596)"
           id="g68"><path
             id="path70"
             style="fill:#004980;fill-opacity:1;fill-rule:nonzero;stroke:none"
             d="m 0,0 c -2.187,12.012 -9.684,24.405 -20.195,34.549 2.315,-6.253 4.242,-12.561 5.886,-18.936 7.792,-30.213 -9.788,-43.681 -18.54,-47.481 -8.752,-3.799 -17.238,-5.413 -25.815,-22.628 -3.676,-7.442 -10.242,-12.438 -16.008,-15.609 l -0.185,-39.142 c 1.351,-0.301 2.678,-0.578 3.988,-0.834 7.891,-1.544 15.012,-2.254 21.466,-2.294 19.71,-0.118 33.128,6.107 42.716,14.583 2.67,2.362 5.051,4.893 7.182,7.513 0,0 10.033,55.924 6.885,101.643 -0.036,0.524 -0.071,1.049 -0.111,1.57 C 5.357,8.83 2.958,4.531 0,0" /></g><g
           transform="translate(385.4119,282.8768)"
           id="g72"><path
             id="path74"
             style="fill:#004980;fill-opacity:1;fill-rule:nonzero;stroke:none"
             d="M 0,0 C -0.232,7.586 -1.965,16.856 -4.049,25.508 L -4.063,22.423 -4.11,12.525 -4.299,-27.322 C -0.166,-20.722 0.401,-13.103 0,0" /></g><g
           transform="translate(396.7576,194.264)"
           id="g76"><path
             id="path78"
             style="fill:#004980;fill-opacity:1;fill-rule:nonzero;stroke:none"
             d="m 0,0 c 8.577,17.215 17.063,18.828 25.815,22.628 8.752,3.8 26.332,17.268 18.54,47.481 -1.644,6.375 -3.571,12.683 -5.886,18.935 -7.77,7.498 -17.183,13.769 -27.329,17.735 -0.52,0.203 -1.041,0.384 -1.563,0.573 l -11.05,3.271 c -0.087,0.019 -0.176,0.032 -0.263,0.052 -1.306,0.306 -2.577,0.698 -3.82,1.156 l -0.115,0.034 -10e-4,0.009 c -0.661,0.246 -1.316,0.505 -1.956,0.793 -3.286,1.475 -6.276,3.49 -8.883,5.916 0.379,-1.46 0.753,-2.952 1.116,-4.462 2.084,-8.652 3.817,-17.922 4.049,-25.508 0.402,-13.103 -0.166,-20.722 -4.299,-27.322 -2.296,-3.669 -5.69,-7.023 -10.641,-10.827 -5.648,-4.337 -11.12,-8.313 -15.069,-11.129 -1.301,-0.927 -2.436,-1.729 -3.357,-2.375 -1.645,-1.154 -2.61,-1.816 -2.61,-1.816 l 6.301,-17.382 6.212,-17.142 7.569,-20.879 c 0,0 0.677,0.172 1.822,0.547 2.029,0.664 5.538,1.973 9.41,4.103 C -10.242,-12.438 -3.676,-7.442 0,0" /></g><g
           transform="translate(385.574,364.6517)"
           id="g80"><path
             id="path82"
             style="fill:#dbb8a4;fill-opacity:1;fill-rule:nonzero;stroke:none"
             d="m 0,0 c -0.523,1.417 -1.168,2.824 -1.955,4.212 -0.679,1.186 -1.442,2.366 -2.227,3.538 -5.176,3.835 -10.393,10.366 -12.116,21.35 -0.147,-0.093 -0.294,-0.198 -0.437,-0.358 -0.214,-0.24 -0.542,-0.485 -0.756,-0.724 -0.214,-0.24 -0.321,-0.359 -0.428,-0.479 l -0.107,-0.12 c -0.541,-0.484 -1.077,-1.083 -1.498,-1.674 -0.429,-0.479 -0.744,-0.951 -1.058,-1.424 -0.63,-0.944 -1.152,-1.769 -1.461,-2.355 0.006,-0.113 -0.107,-0.119 -0.101,-0.233 l 0.006,-0.113 c 0,0 -0.113,-0.006 -0.106,-0.12 -0.108,-0.119 -0.214,-0.239 -0.208,-0.352 -0.315,-0.472 -0.517,-0.939 -0.711,-1.518 -2.411,-5.705 -7.901,-9.193 -8.38,-10.812 -0.473,-1.731 2.475,-3.613 3.986,-4.212 1.511,-0.598 0.095,-7.838 5.731,-15.142 1.853,-2.328 5.119,-3.659 8.808,-4.35 C -10.314,-8.688 -5.747,-3.489 0,0" /></g><g
           transform="translate(387.4294,365.7035)"
           id="g84"><path
             id="path86"
             style="fill:#dbb8a4;fill-opacity:1;fill-rule:nonzero;stroke:none"
             d="M 0,0 C -0.386,1.058 -0.849,1.967 -1.412,2.953 -1.658,3.28 -1.796,3.728 -2.042,4.055 -2.106,4.141 -2.174,4.222 -2.238,4.308 -2.946,4.681 -3.671,5.1 -4.406,5.571 -3.145,3.588 -1.996,1.545 -1.104,-0.606 -0.739,-0.398 -0.373,-0.194 0,0" /></g><g
           transform="translate(363.0085,385.7933)"
           id="g88"><path
             id="path90"
             style="fill:#004880;fill-opacity:1;fill-rule:nonzero;stroke:none"
             d="M 0,0 C 1.511,3.05 3.642,5.789 6.25,8.063 6.03,9.483 5.868,10.975 5.773,12.548 2.924,9.632 0.854,5.564 0,0" /></g><g
           transform="translate(385.574,364.6517)"
           id="g92"><path
             id="path94"
             style="fill:#004880;fill-opacity:1;fill-rule:nonzero;stroke:none"
             d="M 0,0 C 0.249,0.151 0.498,0.301 0.751,0.446 -0.141,2.597 -1.289,4.64 -2.551,6.623 -3.092,6.97 -3.636,7.346 -4.182,7.75 -3.397,6.578 -2.634,5.398 -1.955,4.212 -1.168,2.824 -0.523,1.417 0,0" /></g><g
           transform="translate(386.0173,368.6566)"
           id="g96"><path
             id="path98"
             style="fill:#004880;fill-opacity:1;fill-rule:nonzero;stroke:none"
             d="m 0,0 c 0.563,-0.986 1.026,-1.895 1.412,-2.953 1.34,0.698 2.727,1.32 4.17,1.83 C 4.02,-0.738 1.719,0.011 -0.826,1.354 -0.762,1.269 -0.694,1.187 -0.63,1.102 -0.384,0.774 -0.246,0.327 0,0" /></g><g
           transform="translate(389.1296,306.931)"
           id="g100"><path
             id="path102"
             style="fill:#004980;fill-opacity:1;fill-rule:nonzero;stroke:none"
             d="m 0,0 c 0.64,-0.288 1.295,-0.547 1.956,-0.793 l 0.001,-0.009 0.115,-0.034 c 1.242,-0.458 2.514,-0.85 3.82,-1.156 0.087,-0.02 0.176,-0.033 0.263,-0.052 l 11.05,-3.271 c 0.522,-0.189 1.043,-0.37 1.563,-0.573 10.146,-3.966 19.559,-10.237 27.329,-17.735 10.511,-10.143 18.008,-22.537 20.195,-34.548 2.958,4.531 5.357,8.83 7.269,12.934 0.244,0.524 0.477,1.044 0.705,1.561 14.398,32.68 -2.519,53.002 -16.355,80.418 L 36.439,77.489 c -15.604,27.242 -37.89,29.457 -56.886,16.509 0.011,-0.888 0.049,-1.746 0.099,-2.588 0.095,-1.573 0.257,-3.064 0.477,-4.485 0.006,-0.035 0.012,-0.07 0.017,-0.105 1.723,-10.983 6.94,-17.514 12.117,-21.349 0.546,-0.404 1.09,-0.781 1.631,-1.127 0.735,-0.471 1.46,-0.891 2.168,-1.264 C -1.394,61.736 0.907,60.987 2.47,60.603 1.026,60.093 -0.36,59.47 -1.7,58.772 -2.073,58.578 -2.439,58.375 -2.805,58.167 -3.058,58.022 -3.307,57.872 -3.556,57.721 -9.303,54.231 -13.87,49.032 -16.573,42.834 -18.407,38.631 -19.401,33.982 -19.294,29.095 -19.093,19.926 -15.122,11.734 -8.906,5.937 -8.898,5.93 -8.891,5.923 -8.883,5.916 -6.276,3.49 -3.286,1.475 0,0" /></g><g
           transform="translate(189.1321,18.6195)"
           id="g104"><path
             id="path106"
             style="fill:#2d91dc;fill-opacity:1;fill-rule:nonzero;stroke:none"
             d="M 0,0 C 3.375,-1.53 6.796,-2.978 10.265,-4.332 7.695,-2.209 5.92,-0.587 5.268,0 Z" /></g><g
           transform="translate(154.2312,165.8197)"
           id="g108"><path
             id="path110"
             style="fill:#163a64;fill-opacity:1;fill-rule:nonzero;stroke:none"
             d="m 0,0 h -21.693 c 0.97,-21.577 -0.676,-37.862 -6.454,-48.026 l -15.801,-37.061 c 10.951,-14.026 23.65,-26.62 37.766,-37.461 1.32,3.288 2.652,6.731 3.984,10.277 l 6.267,82.872 C 4.702,-22.374 4.727,-14.858 0,0" /></g><g
           transform="translate(215.2,144.5199)"
           id="g112"><path
             id="path114"
             style="fill:#004980;fill-opacity:1;fill-rule:nonzero;stroke:none"
             d="m 0,0 c 0.334,6.249 -0.771,13.493 -2.677,21.3 h -58.292 c 4.727,-14.859 4.702,-22.374 4.069,-29.4 l -6.267,-82.872 -0.949,-12.563 c 11.731,-8.677 24.4,-16.157 37.826,-22.265 h 5.49 c 1.008,5.096 6.938,35.055 12.226,65.405 C -4.418,-36.545 -0.66,-12.453 0,0" /></g></g></g><g
       id="g116"><g
         clip-path="url(#clipPath122)"
         id="g118"><g
           id="g124"><g
             id="g126"><path
               id="path138"
               style="fill:url(#linearGradient136);stroke:none"
               d="m 287.7,311.304 v -0.109 c 0.065,0.08 0.099,0.125 0.099,0.125 v 0 c -0.032,-0.006 -0.066,-0.01 -0.099,-0.016" /></g></g></g></g><g
       id="g140"><g
         clip-path="url(#clipPath146)"
         id="g142"><g
           transform="translate(229.5569,333.7201)"
           id="g148"><path
             id="path150"
             style="fill:#2880c2;fill-opacity:1;fill-rule:nonzero;stroke:none"
             d="m 0,0 c -32.61,12.223 -42.757,44.3 -42.757,44.3 0,0 2.929,-20.945 9.414,-44.3 z" /></g><g
           transform="translate(184.4905,377.7719)"
           id="g152"><path
             id="path154"
             style="fill:#2880c2;fill-opacity:1;fill-rule:nonzero;stroke:none"
             d="M 0,0 C 0.751,0.041 1.521,0.119 2.31,0.248 L 0.738,1.204 C 0.75,1.17 0.759,1.135 0.771,1.101 0.771,1.101 0.523,0.657 0,0" /></g><g
           transform="translate(167.4998,384.4198)"
           id="g156"><path
             id="path158"
             style="fill:#2880c2;fill-opacity:1;fill-rule:nonzero;stroke:none"
             d="m 0,0 c -0.075,-0.051 -0.146,-0.104 -0.22,-0.156 0.085,0.042 0.166,0.081 0.252,0.123 C 0.013,-0.013 0,0 0,0" /></g><g
           transform="translate(179.5076,373.743)"
           id="g160"><path
             id="path162"
             style="fill:#2880c2;fill-opacity:1;fill-rule:nonzero;stroke:none"
             d="M 0,0 C -3.071,-3.621 -19.71,-23.637 -26.61,-40.023 H 16.707 C 10.222,-16.667 7.292,4.277 7.292,4.277 6.503,4.147 5.734,4.069 4.983,4.029 4.144,2.974 2.555,1.357 0,0" /></g><g
           transform="translate(212.5227,165.8197)"
           id="g164"><path
             id="path166"
             style="fill:#2d91dc;fill-opacity:1;fill-rule:nonzero;stroke:none"
             d="m 0,0 h 75.177 v 20.419 3.568 83.478 3.345 c -7.02,-11.736 -16.717,-9.007 -18.7,-3.51 -2.2,6.1 -7.9,10.1 2,14.5 9.9,4.4 9.7,8.8 9.7,8.8 0,0 -5.1,-2 -11,-4 -5.9,-2 -8.8,4.8 0.7,6.8 8.883,1.87 16.366,10.82 17.3,11.975 v 0.109 22.416 H 17.034 -16.309 -59.625 c -0.099,-0.233 -0.204,-0.468 -0.298,-0.7 -7.4,-18.2 -5.4,-22.7 7,-34.3 12.4,-11.6 15.7,-13.2 15.7,-13.2 l -15.209,-19.288 c 2.45,-5.097 12.198,-24.685 19.509,-30.812 8.4,-7.1 23,3.2 25.2,3.6 2.2,0.3 4.6,-3.8 -1.6,-7.7 -6.3,-3.9 -10.4,-5.4 -9.8,-9.6 0.6,-4.2 5.5,-12.7 15,-18.4 9.5,-5.899 -15.5,-12.1 -23,-11.3 -7.5,0.8 -14.3,14.901 -19.5,27.9 -4.469,11.123 -16.526,20.366 -23.156,24.313 L -77.123,69.1 c 0,0 -17.1,4.2 -23.1,21.8 -6,17.6 -9,22.8 -15.7,29.2 -6.554,6.261 -21.03,26.782 -1.995,47.8 h -94.605 V 0 h 132.538 21.693 z" /></g><g
           transform="translate(270.4001,299.2201)"
           id="g168"><path
             id="path170"
             style="fill:#dbb8a4;fill-opacity:1;fill-rule:nonzero;stroke:none"
             d="m 0,0 c -9.5,-2 -6.6,-8.8 -0.7,-6.8 5.9,2 11,4 11,4 0,0 0.2,-4.4 -9.7,-8.8 -9.9,-4.4 -4.2,-8.4 -2,-14.5 1.983,-5.498 11.679,-8.227 18.7,3.51 0.769,1.286 1.509,2.74 2.2,4.39 4.3,9.8 3.5,21.1 -2.101,30.3 0,0 -0.034,-0.045 -0.099,-0.125 C 16.365,10.819 8.883,1.87 0,0" /></g><g
           transform="translate(162.4763,401.1351)"
           id="g172"><path
             id="path174"
             style="fill:#004980;fill-opacity:1;fill-rule:nonzero;stroke:none"
             d="m 0,0 c -0.094,0.067 -0.188,0.135 -0.283,0.202 -0.4,0.435 -0.729,0.97 -1.057,1.506 -0.095,0.067 -0.118,0.234 -0.235,0.468 -1.432,2.975 -1.396,7.61 2.315,9.624 3.843,2.053 6.029,0.895 8.443,0.281 0.092,2.12 1.625,2.483 5.559,-0.331 8.155,0.336 16.091,3.387 22.742,8.723 0.072,0.1 0.237,0.132 0.308,0.232 2.2,1.889 4.211,3.912 6.199,6.102 0,0 0.422,-2.354 1.141,-5.401 2.112,1.99 3.826,4.79 4.439,9.239 1.228,8.896 -0.511,11.64 -7.943,12.58 0,0 -26.046,2.94 -36.108,-0.407 C -4.543,39.471 -10.885,33.169 -13.005,25.812 -19.986,2.173 -5.669,-3.08 5.407,-5.043 5.136,-4.462 4.752,-3.953 4.215,-3.457 -0.4,0.436 2.685,-2.215 0,0" /></g><g
           transform="translate(179.9998,374.3197)"
           id="g176"><path
             id="path178"
             style="fill:#dbb8a4;fill-opacity:1;fill-rule:nonzero;stroke:none"
             d="M 0,0 C 0,0 -0.174,-0.201 -0.492,-0.577 2.063,0.781 3.652,2.397 4.491,3.452 5.014,4.109 5.262,4.553 5.262,4.553 5.25,4.587 5.241,4.622 5.229,4.656 4.557,6.601 4.103,8.668 3.807,10.768 c -3.47,-0.003 -6.881,0.364 -10.255,1.084 -1.817,0.243 -3.491,0.685 -5.189,1.294 -0.036,-1.212 -0.085,-2.399 -0.141,-3.552 z" /></g><g
           transform="translate(190.4607,400.6971)"
           id="g180"><path
             id="path182"
             style="fill:#dbb8a4;fill-opacity:1;fill-rule:nonzero;stroke:none"
             d="m 0,0 c 6.49,-6.273 12.682,-6.915 12.682,-6.915 0,-0.028 -0.001,-0.053 -0.002,-0.081 0.566,0.841 1.055,1.673 1.469,2.459 -0.196,0.055 -0.404,0.114 -0.634,0.185 C 9.982,-3.265 5.491,-1.274 0,0" /></g><g
           transform="translate(200.2683,421.8397)"
           id="g184"><path
             id="path186"
             style="fill:#dbb8a4;fill-opacity:1;fill-rule:nonzero;stroke:none"
             d="m 0,0 c -0.071,-0.1 -0.236,-0.132 -0.308,-0.231 -6.651,-5.337 -14.587,-8.388 -22.742,-8.724 2.829,-2.024 6.894,-5.686 12.564,-11.529 0.024,-0.025 0.048,-0.046 0.073,-0.071 4.597,0.084 15.554,0.058 16.182,-2.05 0,-0.002 10e-4,-0.005 0.002,-0.008 0.318,0.76 0.548,1.336 0.709,1.605 1.115,1.761 1.725,0.424 4.797,2.142 0.307,0.231 0.615,0.463 1.065,0.894 1.538,1.759 1.522,4.327 -0.126,5.803 C 10.19,-10.092 8.425,-3.902 7.34,0.701 6.621,3.749 6.199,6.102 6.199,6.102 4.211,3.912 2.2,1.889 0,0" /></g><g
           transform="translate(173.552,386.1713)"
           id="g188"><path
             id="path190"
             style="fill:#dbb8a4;fill-opacity:1;fill-rule:nonzero;stroke:none"
             d="m 0,0 c 3.374,-0.72 6.785,-1.086 10.254,-1.083 0.112,0 0.223,-0.002 0.334,-0.001 -0.221,0.06 -0.349,0.096 -0.349,0.096 0,0 -12.406,21.742 -12.132,28.033 -2.414,0.614 -4.6,1.772 -8.443,-0.281 -3.71,-2.014 -3.747,-6.649 -2.315,-9.624 0.117,-0.234 0.141,-0.401 0.235,-0.468 0.329,-0.536 0.658,-1.071 1.058,-1.506 0.094,-0.067 0.188,-0.135 0.282,-0.202 2.685,-2.215 -0.4,0.435 4.216,-3.457 0.536,-0.496 0.92,-1.006 1.192,-1.586 C -4.856,8.185 -5.053,5.817 -5.189,1.295 -3.491,0.686 -1.817,0.243 0,0" /></g><g
           transform="translate(190.4607,400.6971)"
           id="g192"><path
             id="path194"
             style="fill:#004980;fill-opacity:1;fill-rule:nonzero;stroke:none"
             d="m 0,0 c -0.849,0.197 -1.717,0.379 -2.614,0.536 0,0 0.78,0.03 2.009,0.052 -0.025,0.025 -0.049,0.046 -0.074,0.071 -5.67,5.842 -9.735,9.504 -12.564,11.529 -3.934,2.814 -5.466,2.451 -5.559,0.331 -0.273,-6.291 12.133,-28.033 12.133,-28.033 0,0 0.127,-0.036 0.348,-0.096 1.945,-0.534 11.528,-3.125 12.695,-2.742 1.296,0.426 6.087,-1.19 6.306,11.356 10e-4,0.028 0.002,0.053 0.002,0.081 0,0 -6.192,0.642 -12.682,6.915" /></g><g
           transform="translate(189.8552,401.285)"
           id="g196"><path
             id="path198"
             style="fill:#004980;fill-opacity:1;fill-rule:nonzero;stroke:none"
             d="m 0,0 c -1.229,-0.022 -2.009,-0.052 -2.009,-0.052 0.897,-0.156 1.766,-0.339 2.614,-0.536 5.491,-1.274 9.982,-3.265 13.516,-4.352 0.23,-0.071 0.437,-0.13 0.634,-0.185 3.292,-0.908 2.113,0.457 1.429,3.066 -0.001,0.003 -0.002,0.006 -0.002,0.009 C 15.554,0.058 4.597,0.083 0,0" /></g><g
           transform="translate(142.7434,244.2323)"
           id="g200"><path
             id="path202"
             style="fill:#dbb8a4;fill-opacity:1;fill-rule:nonzero;stroke:none"
             d="m 0,0 c 6.63,-3.947 18.687,-13.189 23.157,-24.312 5.199,-13 12,-27.101 19.5,-27.9 7.5,-0.8 32.5,5.4 23,11.299 -9.5,5.701 -14.401,14.201 -15,18.401 -0.6,4.2 3.5,5.7 9.8,9.599 6.2,3.901 3.799,8 1.6,7.701 C 59.856,-5.612 45.256,-15.913 36.856,-8.813 29.545,-2.686 19.797,16.903 17.347,22 Z" /></g><g
           transform="translate(96.5999,285.9198)"
           id="g204"><path
             id="path206"
             style="fill:#2880c2;fill-opacity:1;fill-rule:nonzero;stroke:none"
             d="M 0,0 C 6.7,-6.4 9.7,-11.6 15.7,-29.2 21.7,-46.8 38.8,-51 38.8,-51 l 7.344,9.312 17.347,22 L 78.7,-0.4 c 0,0 -3.3,1.6 -15.7,13.2 -12.4,11.6 -14.4,16.1 -7,34.3 0.094,0.232 0.199,0.467 0.297,0.7 6.901,16.386 23.54,36.402 26.611,40.023 C 83.226,88.199 83.4,88.4 83.4,88.4 L 71.622,97.994 71,98.5 C 70.977,98.489 70.955,98.478 70.932,98.467 70.846,98.425 70.765,98.386 70.68,98.344 30.963,79.072 22.835,73.434 -0.7,49.2 -1.156,48.733 -1.573,48.267 -1.996,47.8 -21.03,26.782 -6.554,6.261 0,0" /></g></g></g></g></svg>